<svg width="16" height="16" viewBox="0 0 16 16" fill="none" xmlns="http://www.w3.org/2000/svg">
<path d="M8 0.5C12.14 0.5 15.5 3.86 15.5 8C15.5 12.14 12.14 15.5 8 15.5C3.86 15.5 0.5 12.14 0.5 8C0.5 3.86 3.86 0.5 8 0.5ZM8 2C4.685 2 2 4.685 2 8C2 11.315 4.685 14 8 14C11.315 14 14 11.315 14 8C14 4.685 11.315 2 8 2ZM8 4.25C9.365 4.25 10.5597 4.97975 11.216 6.071L9.9305 6.84275C9.7282 6.50543 9.441 6.22704 9.09755 6.03533C8.7541 5.84363 8.36639 5.74531 7.97309 5.75017C7.57979 5.75504 7.19463 5.86292 6.85603 6.06307C6.51742 6.26321 6.2372 6.54862 6.0433 6.89084C5.84941 7.23306 5.74861 7.62013 5.75096 8.01346C5.75331 8.40678 5.85873 8.79262 6.05671 9.13249C6.25469 9.47237 6.5383 9.75441 6.87928 9.95049C7.22025 10.1466 7.60667 10.2498 8 10.25C8.3886 10.2503 8.77063 10.1498 9.10884 9.95841C9.44704 9.76703 9.72988 9.49126 9.92975 9.158L11.216 9.929C10.7945 10.633 10.1537 11.1792 9.39194 11.484C8.63015 11.7888 7.78941 11.8353 6.99867 11.6163C6.20793 11.3973 5.51086 10.925 5.01435 10.2718C4.51785 9.61856 4.24934 8.8205 4.25 8C4.25 5.93 5.93 4.25 8 4.25Z" fill="#F7F7F7"/>
</svg>
