<svg width="233" height="40" viewBox="0 0 233 40" fill="none" xmlns="http://www.w3.org/2000/svg">
<path d="M44.8972 6.54233V39.3079H51.3463V18.5871L58.7358 32.4779H63.4831L70.8726 18.5871V39.3079H77.3217V6.54233H71.2757L61.199 25.4633L51.1671 6.54233H44.8972ZM81.8233 27.0785C81.8233 34.4623 86.7945 40.0001 93.9153 40.0001C98.3491 40.0001 102.962 37.7388 104.664 33.3547L99.0656 31.5088C97.9012 33.447 96.1994 34.5546 93.9601 34.5546C90.5564 34.5546 88.6755 31.9702 88.1828 28.7398H105.156V27.1246C105.156 19.7408 100.812 14.2492 93.6018 14.2492C86.5258 14.2492 81.8233 20.1562 81.8233 27.0785ZM93.6018 19.2332C96.6024 19.2332 98.3043 21.5406 98.7074 24.4019H88.2724C88.8098 21.5406 90.6012 19.2332 93.6018 19.2332ZM107.084 14.9414V20.1562H111.114V31.5088C111.114 36.7697 114.025 40.0001 119.041 40.0001C121.012 40.0001 123.027 39.4925 124.729 38.3849L123.609 33.5393C122.534 34.0008 121.46 34.37 120.295 34.37C118.101 34.37 117.384 32.7548 117.384 30.7242V20.1562H123.833V14.9414H117.384V6.63463H111.114V14.9414H107.084ZM135.548 40.0001C138.235 40.0001 141.101 38.8925 142.535 36.4467L142.714 39.3079H148.312V24.5403C148.312 18.1718 143.968 14.2492 138.056 14.2492C133.712 14.2492 129.009 16.6489 127.979 21.3099L133.578 22.4636C134.249 20.5254 136.041 19.5563 137.966 19.5563C140.698 19.5563 142.221 21.4945 142.221 24.2173V25.6479C140.385 24.9556 138.817 24.5865 136.847 24.5865C132.144 24.5865 127.128 26.94 127.128 32.3856C127.128 37.2312 131.249 40.0001 135.548 40.0001ZM133.309 32.0625C133.309 29.6167 135.951 28.9244 137.877 28.9244C138.638 28.9244 139.355 29.0167 140.116 29.1552C140.878 29.3398 141.549 29.5705 142.221 29.8474V30.0781C142.221 33.0778 139.803 35.016 137.071 35.016C135.324 35.016 133.309 34.1392 133.309 32.0625ZM153.308 4.88098V39.3079H159.086L159.265 36.1236C160.922 38.7079 163.609 40.0001 166.565 40.0001C173.506 40.0001 177.806 33.5854 177.806 26.9862C177.806 20.3869 173.641 14.2492 166.923 14.2492C163.967 14.2492 161.37 15.5875 159.578 18.0333V4.88098H153.308ZM165.445 20.0639C169.252 20.0639 171.401 23.525 171.401 27.1246C171.401 30.7704 169.162 34.1854 165.445 34.1854C161.683 34.1854 159.489 30.6781 159.489 27.1246C159.489 23.4789 161.728 20.0639 165.445 20.0639ZM181.911 14.9414V39.3079H188.181V25.3248C188.181 22.3252 190.107 20.0639 193.018 20.0639C196.108 20.0639 197.228 22.6944 197.228 25.5094V39.3079H203.498V24.6788C203.498 19.0025 200.676 14.2492 194.854 14.2492C191.988 14.2492 189.346 15.4952 187.868 18.0795L187.689 14.9414H181.911ZM208.503 4.88098V39.3079H214.28L214.459 36.1236C216.116 38.7079 218.803 40.0001 221.759 40.0001C228.701 40.0001 233 33.5854 233 26.9862C233 20.3869 228.835 14.2492 222.117 14.2492C219.161 14.2492 216.564 15.5875 214.772 18.0333V4.88098H208.503ZM220.639 20.0639C224.446 20.0639 226.596 23.525 226.596 27.1246C226.596 30.7704 224.356 34.1854 220.639 34.1854C216.877 34.1854 214.683 30.6781 214.683 27.1246C214.683 23.4789 216.922 20.0639 220.639 20.0639Z" fill="#F7F7F7"/>
<path d="M22.3926 6.50769H19.5935V7.94984H22.3926V6.50769Z" fill="#FEF9F9"/>
<path d="M24.4918 9.39197H17.4941V10.8341H24.4918V9.39197Z" fill="#FEF9F9"/>
<path d="M9.09705 19.4869H7.69751V20.9291H9.09705V19.4869Z" fill="#FEF9F9"/>
<path d="M11.8961 19.4869H10.4966V20.9291H11.8961V19.4869Z" fill="#FEF9F9"/>
<path d="M14.6952 19.4869H13.2957V20.9291H14.6952V19.4869Z" fill="#FEF9F9"/>
<path d="M17.4943 19.4869H16.0947V20.9291H17.4943V19.4869Z" fill="#FEF9F9"/>
<path d="M20.2933 19.4869H18.8938V20.9291H20.2933V19.4869Z" fill="#FEF9F9"/>
<path d="M23.0924 19.4869H21.6929V20.9291H23.0924V19.4869Z" fill="#FEF9F9"/>
<path d="M25.8915 19.4869H24.4919V20.9291H25.8915V19.4869Z" fill="#FEF9F9"/>
<path d="M28.6906 19.4869H27.291V20.9291H28.6906V19.4869Z" fill="#FEF9F9"/>
<path d="M31.4896 19.4869H30.0901V20.9291H31.4896V19.4869Z" fill="#FEF9F9"/>
<path d="M34.2887 19.4869H32.8892V20.9291H34.2887V19.4869Z" fill="#FEF9F9"/>
<path d="M15.3949 29.5819H13.9954V31.0241H15.3949V29.5819Z" fill="#FEF9F9"/>
<path d="M22.3926 24.5344V33.1873C22.3926 33.6199 22.6725 33.9084 23.0923 33.9084H32.8891C33.309 33.9084 33.5889 33.6199 33.5889 33.1873V24.5344C33.5889 24.1018 33.309 23.8134 32.8891 23.8134H23.0923C22.6725 23.8134 22.3926 24.1025 22.3926 24.5344ZM23.7921 29.5819H27.291V32.4662H23.7921V29.5819ZM28.6905 32.4662V29.5819H32.1893V32.4662H28.6905ZM32.1893 28.1398H28.6905V25.2555H32.1893V28.1398ZM27.291 25.2555V28.1398H23.7921V25.2555H27.291Z" fill="#FEF9F9"/>
<path d="M39.1871 38.2349V36.0717C39.1871 35.639 38.9072 35.3506 38.4873 35.3506H37.0878V18.0448H39.1871C39.6069 18.0448 39.8868 17.7564 39.8868 17.3238V14.6558C39.8868 14.4395 39.8169 14.2232 39.6069 14.0789L34.2887 10.0409V1.46017C34.2887 1.02753 34.0088 0.739099 33.5889 0.739099H27.9908C27.5709 0.739099 27.291 1.02753 27.291 1.46017V4.63289L21.4129 0.162241C21.133 -0.0540804 20.8531 -0.0540804 20.5732 0.162241L2.86905 13.7184H2.79908V13.7905L2.37922 14.0789C2.16929 14.2232 2.09931 14.4395 2.09931 14.6558V17.3238C2.09931 17.7564 2.37921 18.0448 2.79908 18.0448H4.89838V35.3506H3.49885C3.07898 35.3506 2.79908 35.639 2.79908 36.0717V38.2349H0V39.677H3.49885H38.4873H41.9861V38.2349H39.1871ZM32.8891 2.18124V2.90232H28.6905V2.18124H32.8891ZM28.6905 4.34446H32.8891V8.95933L28.6905 5.7145V4.34446ZM3.49885 15.1605H31.4896V13.7184H5.17829L20.9931 1.60511L38.4873 15.0171V16.6034H36.388H5.59815H3.49885V15.1605ZM6.29792 18.0448H35.6882V35.3506H18.194V25.2556H19.5935V23.8134H17.4942H9.79677H7.69746V25.2556H9.097V35.3506H6.29792V18.0448ZM10.4965 25.2556H16.7945V35.3506H10.4965V25.2556ZM4.19861 38.2349V36.7927H5.59815H9.79677H17.4942H36.388H37.7875V38.2349H4.19861Z" fill="#F7F7F7"/>
</svg>
