<svg width="189" height="33" viewBox="0 0 189 33" fill="none" xmlns="http://www.w3.org/2000/svg">
<path d="M0.897217 1.66377V31.6989H7.34629V12.7048L14.7358 25.438H19.4831L26.8726 12.7048V31.6989H33.3217V1.66377H27.2757L17.199 19.008L7.16715 1.66377H0.897217ZM37.8233 20.4886C37.8233 27.257 42.7945 32.3334 49.9153 32.3334C54.3491 32.3334 58.9619 30.2606 60.6638 26.2418L55.0656 24.5497C53.9012 26.3264 52.1994 27.3416 49.9601 27.3416C46.5564 27.3416 44.6755 24.9727 44.1828 22.0115H61.1564V20.5309C61.1564 13.7624 56.8123 8.72836 49.6018 8.72836C42.5258 8.72836 37.8233 14.1431 37.8233 20.4886ZM49.6018 13.2971C52.6024 13.2971 54.3043 15.4122 54.7074 18.035H44.2724C44.8098 15.4122 46.6012 13.2971 49.6018 13.2971ZM63.0836 9.36291V14.1431H67.1143V24.5497C67.1143 29.3722 70.0253 32.3334 75.0412 32.3334C77.0118 32.3334 79.0271 31.8681 80.729 30.8528L79.6093 26.411C78.5345 26.834 77.4596 27.1724 76.2952 27.1724C74.1008 27.1724 73.3842 25.6918 73.3842 23.8305V14.1431H79.8333V9.36291H73.3842V1.74838H67.1143V9.36291H63.0836ZM91.5481 32.3334C94.2352 32.3334 97.1015 31.3181 98.5346 29.0761L98.7137 31.6989H104.312V18.1619C104.312 12.3241 99.9677 8.72836 94.0561 8.72836C89.7119 8.72836 85.0095 10.9281 83.9794 15.2007L89.5775 16.2583C90.2493 14.4816 92.0407 13.5932 93.9665 13.5932C96.6984 13.5932 98.2211 15.3699 98.2211 17.8658V19.1772C96.3849 18.5426 94.8174 18.2042 92.8469 18.2042C88.1444 18.2042 83.1285 20.3617 83.1285 25.3534C83.1285 29.7952 87.2487 32.3334 91.5481 32.3334ZM89.3088 25.0573C89.3088 22.8152 91.9512 22.1807 93.8769 22.1807C94.6383 22.1807 95.3548 22.2653 96.1162 22.3922C96.8775 22.5614 97.5493 22.7729 98.2211 23.0267V23.2383C98.2211 25.988 95.8027 27.7647 93.0708 27.7647C91.3242 27.7647 89.3088 26.9609 89.3088 25.0573ZM109.308 0.140869V31.6989H115.086L115.265 28.7799C116.922 31.1489 119.609 32.3334 122.565 32.3334C129.506 32.3334 133.806 26.4533 133.806 20.404C133.806 14.3547 129.641 8.72836 122.923 8.72836C119.967 8.72836 117.37 9.95515 115.578 12.1972V0.140869H109.308ZM121.445 14.0585C125.252 14.0585 127.401 17.2312 127.401 20.5309C127.401 23.8728 125.162 27.0032 121.445 27.0032C117.683 27.0032 115.489 23.7882 115.489 20.5309C115.489 17.1889 117.728 14.0585 121.445 14.0585ZM137.911 9.36291V31.6989H144.181V18.8811C144.181 16.1314 146.107 14.0585 149.018 14.0585C152.108 14.0585 153.228 16.4698 153.228 19.0503V31.6989H159.498V18.2888C159.498 13.0856 156.676 8.72836 150.854 8.72836C147.988 8.72836 145.346 9.87054 143.868 12.2395L143.689 9.36291H137.911ZM164.503 0.140869V31.6989H170.28L170.459 28.7799C172.116 31.1489 174.803 32.3334 177.759 32.3334C184.701 32.3334 189 26.4533 189 20.404C189 14.3547 184.835 8.72836 178.117 8.72836C175.161 8.72836 172.564 9.95515 170.772 12.1972V0.140869H164.503ZM176.639 14.0585C180.446 14.0585 182.596 17.2312 182.596 20.5309C182.596 23.8728 180.356 27.0032 176.639 27.0032C172.877 27.0032 170.683 23.7882 170.683 20.5309C170.683 17.1889 172.922 14.0585 176.639 14.0585Z" fill="url(#paint0_linear_1_270)"/>
<defs>
<linearGradient id="paint0_linear_1_270" x1="35.587" y1="3.57475" x2="148.672" y2="20.566" gradientUnits="userSpaceOnUse">
<stop stop-color="#DC3E88"/>
<stop offset="0.418735" stop-color="#B840AE"/>
<stop offset="1" stop-color="#843FE8"/>
</linearGradient>
</defs>
</svg>
