<svg width="42" height="38" viewBox="0 0 42 38" fill="none" xmlns="http://www.w3.org/2000/svg">
<path d="M39.1871 35.7153V33.7323C39.1871 33.3357 38.9072 33.0713 38.4873 33.0713H37.0878V17.2077H39.1871C39.6069 17.2077 39.8868 16.9433 39.8868 16.5467V14.1011C39.8868 13.9028 39.8169 13.7045 39.6069 13.5723L34.2887 9.87082V2.00512C34.2887 1.60853 34.0088 1.34413 33.5889 1.34413H27.9908C27.5709 1.34413 27.291 1.60853 27.291 2.00512V4.91344L21.4129 0.815347C21.133 0.617052 20.8531 0.617052 20.5732 0.815347L2.86905 13.2418H2.79908V13.3079L2.37922 13.5723C2.16929 13.7045 2.09931 13.9028 2.09931 14.1011V16.5467C2.09931 16.9433 2.37921 17.2077 2.79908 17.2077H4.89838V33.0713H3.49885C3.07898 33.0713 2.79908 33.3357 2.79908 33.7323V35.7153H0V37.0372H3.49885H38.4873H41.9861V35.7153H39.1871ZM32.8891 2.6661V3.32708H28.6905V2.6661H32.8891ZM28.6905 4.64905H32.8891V8.87934L28.6905 5.90492V4.64905ZM3.49885 14.5638H31.4896V13.2418H5.17829L20.9931 2.13797L38.4873 14.4323V15.8864H36.388H5.59815H3.49885V14.5638ZM6.29792 17.2077H35.6882V33.0713H18.194V23.8176H19.5935V22.4956H17.4942H9.79677H7.69746V23.8176H9.097V33.0713H6.29792V17.2077ZM10.4965 23.8176H16.7945V33.0713H10.4965V23.8176ZM4.19861 35.7153V34.3933H5.59815H9.79677H17.4942H36.388H37.7875V35.7153H4.19861Z" fill="url(#paint0_linear_2165_82)"/>
<defs>
<linearGradient id="paint0_linear_2165_82" x1="7.74304" y1="4.54617" x2="33.5317" y2="5.31171" gradientUnits="userSpaceOnUse">
<stop stop-color="#DC3E88"/>
<stop offset="0.418735" stop-color="#B840AE"/>
<stop offset="1" stop-color="#843FE8"/>
</linearGradient>
</defs>
</svg>
