<svg width="51" height="50" viewBox="0 0 51 50" fill="none" xmlns="http://www.w3.org/2000/svg">
<path d="M37.5447 15.0017C40.8164 22.9887 37.8168 33.9749 30.8219 39.5337C23.827 45.0925 15.5106 43.0989 12.239 35.1119C8.96732 27.1249 11.9669 16.1387 18.9618 10.5799C25.9567 5.02115 34.273 7.01472 37.5447 15.0017Z" fill="#434343" stroke="#434343" stroke-width="0.2"/>
<path d="M39.9376 16.4308C43.0263 23.9713 40.1947 34.3441 33.5898 39.5929C26.985 44.8417 19.1332 42.9588 16.0445 35.4184C12.9557 27.878 15.7873 17.5051 22.3922 12.2563C28.997 7.00755 36.8488 8.8904 39.9376 16.4308Z" fill="white" stroke="#434343" stroke-width="0.2"/>
<path d="M38.8945 17.5849C41.7518 24.5602 39.2872 34.014 33.3898 38.7005C27.4925 43.3871 20.3955 41.5318 17.5382 34.5565C14.6809 27.5811 17.1456 18.1274 23.0429 13.4408C28.9402 8.75427 36.0373 10.6095 38.8945 17.5849Z" stroke="#434343" stroke-width="0.2"/>
<path d="M37.0898 19.3414C39.4638 25.1369 37.4483 32.9642 32.5903 36.8248C27.7324 40.6854 21.8691 39.1191 19.4951 33.3236C17.1212 27.5281 19.1366 19.7008 23.9946 15.8402C28.8526 11.9796 34.7158 13.5458 37.0898 19.3414Z" stroke="#434343" stroke-width="0.2"/>
<path d="M29.2657 21.7027L29.2657 21.4749L29.9965 21.1615L29.9965 21.3893L29.2657 21.7027Z" fill="#434343" stroke="#434343" stroke-width="0.2"/>
<path d="M28.5802 22.8524L28.5802 22.6246L30.6827 21.7227L30.6827 21.9505L28.5802 22.8524Z" fill="#434343" stroke="#434343" stroke-width="0.2"/>
<path d="M25.3795 27.2197L25.3795 26.992L25.653 26.8747L25.653 27.1024L25.3795 27.2197Z" fill="#434343" stroke="#434343" stroke-width="0.2"/>
<path d="M26.2928 26.8274L26.2928 26.5996L26.5663 26.4823L26.5663 26.7101L26.2928 26.8274Z" fill="#434343" stroke="#434343" stroke-width="0.2"/>
<path d="M27.2081 26.4351L27.2081 26.2074L27.4816 26.0901L27.4816 26.3178L27.2081 26.4351Z" fill="#434343" stroke="#434343" stroke-width="0.2"/>
<path d="M28.1236 26.0427L28.1236 25.8149L28.3971 25.6976L28.3971 25.9254L28.1236 26.0427Z" fill="#434343" stroke="#434343" stroke-width="0.2"/>
<path d="M29.037 25.6502L29.037 25.4225L29.3104 25.3052L29.3104 25.5329L29.037 25.6502Z" fill="#434343" stroke="#434343" stroke-width="0.2"/>
<path d="M29.9523 25.2581L29.9523 25.0303L30.2257 24.913L30.2257 25.1408L29.9523 25.2581Z" fill="#434343" stroke="#434343" stroke-width="0.2"/>
<path d="M30.8673 24.8657L30.8673 24.638L31.1408 24.5207L31.1408 24.7484L30.8673 24.8657Z" fill="#434343" stroke="#434343" stroke-width="0.2"/>
<path d="M31.7806 24.4735L31.7806 24.2457L32.0541 24.1284L32.0541 24.3562L31.7806 24.4735Z" fill="#434343" stroke="#434343" stroke-width="0.2"/>
<path d="M32.6959 24.0813L32.6959 23.8535L32.9694 23.7362L32.9694 23.964L32.6959 24.0813Z" fill="#434343" stroke="#434343" stroke-width="0.2"/>
<path d="M33.6092 23.689L33.6092 23.4612L33.8827 23.3439L33.8827 23.5717L33.6092 23.689Z" fill="#434343" stroke="#434343" stroke-width="0.2"/>
<path d="M27.4371 29.3312L27.4371 29.1035L27.7106 28.9862L27.7106 29.2139L27.4371 29.3312Z" fill="#434343" stroke="#434343" stroke-width="0.2"/>
<path d="M30.5461 27.5699L30.4542 27.6093L30.4542 27.7093L30.4542 28.5649L30.4542 28.6649L30.5461 28.6254L31.6893 28.1351L31.7812 28.0957L31.7812 27.9957L31.7812 27.1401L31.7812 27.0401L31.6893 27.0796L30.5461 27.5699ZM32.0547 27.8784L32.0547 27.9784L32.1466 27.9389L33.2897 27.4486L33.3817 27.4091L33.3817 27.3091L33.3817 26.4536L33.3817 26.3536L33.2897 26.393L32.1466 26.8834L32.0547 26.9228L32.0547 27.0228L32.0547 27.8784ZM33.2897 26.1653L33.3817 26.1259L33.3817 26.0259L33.3817 25.1704L33.3817 25.0704L33.2897 25.1098L32.1466 25.6001L32.0547 25.6396L32.0547 25.7396L32.0547 26.5951L32.0547 26.6951L32.1466 26.6557L33.2897 26.1653ZM31.7812 25.8569L31.7812 25.7569L31.6893 25.7963L30.5461 26.2866L30.4542 26.3261L30.4542 26.4261L30.4542 27.2816L30.4542 27.3816L30.5461 27.3422L31.6893 26.8518L31.7812 26.8124L31.7812 26.7124L31.7812 25.8569ZM30.1808 28.896L30.1808 26.3295C30.1808 26.2932 30.1929 26.2627 30.2117 26.2371C30.2317 26.2098 30.2661 26.179 30.3175 26.157L33.5184 24.7839C33.5699 24.7619 33.6043 24.7631 33.6242 24.7732C33.643 24.7827 33.6551 24.8027 33.6551 24.8392L33.6551 27.4057C33.6551 27.4422 33.643 27.4727 33.6242 27.4982C33.6043 27.5255 33.5699 27.5562 33.5184 27.5783L30.3175 28.9513C30.266 28.9734 30.2316 28.9721 30.2117 28.962C30.1929 28.9525 30.1808 28.9325 30.1808 28.896Z" fill="#434343" stroke="#434343" stroke-width="0.2"/>
<path d="M35.4841 28.1183L35.4841 28.2183L35.576 28.1789L36.3986 27.826L36.3986 28.0537L35.3474 28.5047L23.9156 33.4083L22.8644 33.8593L22.8644 33.6315L23.687 33.2786L23.7789 33.2392L23.7789 33.1392L23.7789 32.4976C23.7789 32.4611 23.7911 32.4306 23.8098 32.4051C23.8298 32.3778 23.8641 32.3471 23.9156 32.325L24.3729 32.1289L24.4648 32.0895L24.4648 31.9895L24.4648 26.8564L24.4648 26.7564L24.3729 26.7958L23.687 27.09C23.6355 27.1121 23.6011 27.1109 23.5812 27.1008C23.5624 27.0913 23.5503 27.0712 23.5503 27.0348L23.5503 26.2434C23.5503 26.2089 23.5601 26.1769 23.5955 26.1397L23.7327 25.9953L23.7789 25.9467L23.7789 25.938L29.5438 19.4578L29.5441 19.4575C29.5779 19.4193 29.6065 19.3985 29.6315 19.3878C29.6564 19.3771 29.6851 19.3733 29.7189 19.3825L29.7194 19.3826L31.64 19.8849L31.7811 19.9218L31.7811 19.7399L31.7811 18.7988C31.7811 18.7624 31.7933 18.7319 31.812 18.7064C31.832 18.6791 31.8663 18.6484 31.9178 18.6263L33.7469 17.8417C33.7984 17.8196 33.8328 17.8209 33.8528 17.831C33.8715 17.8405 33.8836 17.8605 33.8836 17.897L33.8836 20.4421L33.8836 20.4971L33.9264 20.5083L35.664 20.9606L35.6639 20.9607L35.6675 20.9614C35.7029 20.9683 35.7127 20.9919 35.7127 21.0264L35.7127 21.8177C35.7127 21.8542 35.7006 21.8846 35.6818 21.9102C35.6619 21.9374 35.6275 21.9682 35.576 21.9902L34.8901 22.2845L34.7982 22.3239L34.7982 22.4239L34.7982 27.557L34.7982 27.657L34.8901 27.6176L35.3474 27.4214C35.3988 27.3993 35.4332 27.4005 35.4532 27.4107C35.4719 27.4201 35.4841 27.4402 35.4841 27.4766L35.4841 28.1183ZM33.6102 18.2281L33.6102 18.1281L33.5183 18.1676L32.1465 18.756L32.0546 18.7954L32.0546 18.8954L32.0546 19.1093L32.0546 19.2093L32.1465 19.1699L33.5183 18.5814L33.6102 18.542L33.6102 18.442L33.6102 18.2281ZM32.1465 19.3976L32.0546 19.4371L32.0546 19.5371L32.0546 19.9434L32.0546 19.9979L32.0967 20.0094L33.4685 20.3834L33.6102 20.4221L33.6102 20.2386L33.6102 18.8698L33.6102 18.7698L33.5183 18.8092L32.1465 19.3976ZM23.9156 26.1364L23.8237 26.1758L23.8237 26.2758L23.8237 26.7038L23.8237 26.8038L23.9156 26.7644L24.6015 26.4702L34.6614 22.155L35.3474 21.8608L35.4393 21.8214L35.4393 21.7214L35.4393 21.2508L35.4393 21.1961L35.3969 21.1848L29.681 19.6584L29.6315 19.6452L29.582 19.7009L24.4149 25.5103L24.1499 25.8082L24.4644 25.6733L32.9691 22.0252L32.9691 22.2529L23.9156 26.1364ZM24.8302 26.5997L24.7383 26.6391L24.7383 26.7391L24.7383 31.8722L24.7383 31.9722L24.8302 31.9327L25.7447 31.5405L25.8366 31.501L25.8366 31.401L25.8366 28.4067L25.8366 28.3067L25.7447 28.3462L25.3793 28.5029L25.3793 28.2751L25.9733 28.0203L28.4883 26.9415L29.0823 26.6867L29.0823 26.9145L28.717 27.0712L28.6251 27.1106L28.6251 27.2106L28.6251 30.2049L28.6251 30.3049L28.717 30.2655L34.4328 27.8137L34.5247 27.7743L34.5247 27.6743L34.5247 22.5412L34.5247 22.4412L34.4328 22.4806L24.8302 26.5997ZM26.202 28.15L26.1101 28.1894L26.1101 28.2894L26.1101 31.2837L26.1101 31.3837L26.202 31.3443L28.2597 30.4617L28.3516 30.4222L28.3516 30.3222L28.3516 27.3279L28.3516 27.2279L28.2597 27.2674L26.202 28.15ZM24.0524 33.0219L24.0524 33.1219L24.1443 33.0825L35.1187 28.375L35.2106 28.3356L35.2106 28.2356L35.2106 27.8078L35.2106 27.7078L35.1187 27.7472L34.6614 27.9434L28.4883 30.5913L25.9733 31.6701L24.6015 32.2586L24.1443 32.4547L24.0524 32.4941L24.0524 32.5941L24.0524 33.0219Z" fill="#434343" stroke="#434343" stroke-width="0.2"/>
</svg>
