<svg width="40" height="42" viewBox="0 0 40 42" fill="none" xmlns="http://www.w3.org/2000/svg">
<g clip-path="url(#clip0_1_361)">
<path fill-rule="evenodd" clip-rule="evenodd" d="M39.2278 20.9995C39.2278 32.2618 30.65 41.3928 20.07 41.3928C9.48996 41.3928 0.912109 32.2618 0.912109 20.9995C0.912109 9.73722 9.48996 0.606201 20.07 0.606201C30.6522 0.606201 39.2278 9.73722 39.2278 20.9995ZM10.3638 21.6848L10.4464 21.5464L15.4302 13.2473C15.503 13.1258 15.6742 13.1383 15.7293 13.2703C16.5619 15.2566 17.2804 17.7269 16.9438 19.2648C16.8001 19.8975 16.4065 20.7544 15.9636 21.5464C15.9065 21.6617 15.8435 21.7748 15.7766 21.8838C15.7451 21.9341 15.6919 21.9634 15.6349 21.9634H10.5094C10.3717 21.9634 10.291 21.8042 10.3638 21.6848ZM32.5779 24.5405V23.2269C32.5779 23.1053 32.4677 23.0173 32.3594 23.0509L26.5313 24.8444C26.4998 24.8527 26.4722 24.8716 26.4506 24.8967C25.8264 25.6307 25.2959 26.1232 25.1554 26.2537L25.1456 26.2628C24.7835 26.5897 24.3347 26.7678 23.8623 26.7678H21.7523V24.4777H23.4293C23.4726 24.4777 23.5139 24.4609 23.5454 24.4316L23.7619 24.22C23.8544 24.1299 23.9647 24.0209 24.0965 23.8805C24.1077 23.8686 24.1191 23.8565 24.1306 23.8443C24.1999 23.7708 24.2739 23.6923 24.3465 23.6061C24.4331 23.516 24.5178 23.4154 24.5965 23.3169C24.7283 23.1661 24.8543 23.0089 24.9862 22.8434C25.0807 22.7345 25.1673 22.6109 25.2519 22.4872C25.3464 22.3699 25.4389 22.2379 25.5255 22.1122C25.5577 22.0618 25.592 22.0108 25.6271 21.9587C25.6605 21.9091 25.6946 21.8584 25.7282 21.8063C25.7912 21.7057 25.8542 21.5989 25.9074 21.4983C26.0727 21.2259 26.2125 20.9346 26.3305 20.6434C26.3847 20.5187 26.4281 20.3874 26.4702 20.2597C26.4755 20.2437 26.4808 20.2277 26.486 20.2118C26.5333 20.063 26.5726 19.9227 26.6022 19.7739C26.673 19.424 26.6888 19.0762 26.6573 18.7284C26.6494 18.6194 26.6415 18.5126 26.6179 18.412V18.3953C26.61 18.324 26.5943 18.2444 26.5726 18.1711C26.5018 17.8316 26.3915 17.4922 26.2518 17.1591C26.2046 17.0354 26.1495 16.9097 26.0963 16.7945C25.9703 16.5452 25.8385 16.2958 25.6889 16.0549C25.6589 16.004 25.6257 15.9524 25.5926 15.901C25.5671 15.8613 25.5416 15.8217 25.5176 15.7825C25.4229 15.627 25.3164 15.4771 25.2131 15.3316C25.1897 15.2987 25.1665 15.266 25.1436 15.2336C25.0826 15.1483 25.0159 15.063 24.9486 14.9772C24.9118 14.9302 24.8748 14.8829 24.8386 14.8355C24.7362 14.7035 24.6358 14.5778 24.5335 14.4541C24.1674 14.0141 23.7836 13.6161 23.4411 13.2766C23.3781 13.2096 23.3092 13.1425 23.2384 13.0776C22.9726 12.8199 22.7305 12.5957 22.5278 12.4218C22.4669 12.3719 22.4123 12.3228 22.3614 12.277C22.3268 12.2459 22.294 12.2163 22.2621 12.1892C22.2006 12.1404 22.1473 12.0972 22.1025 12.0609C22.0742 12.0379 22.0492 12.0177 22.0279 12.0006C22.0121 11.9881 21.9944 11.9797 21.9767 11.9734L21.7523 11.9064V9.92846C21.7523 9.60579 21.6303 9.31666 21.4354 9.10501C21.2405 8.89341 20.9689 8.76351 20.6698 8.76351C20.0714 8.76351 19.5872 9.28521 19.5872 9.92846V11.261L19.475 11.2275L19.1699 11.1353L18.8924 11.0536C18.8916 11.0536 18.8907 11.0532 18.8898 11.0528C18.8884 11.0522 18.8868 11.0515 18.8845 11.0515H18.8786L16.7725 10.4439C16.68 10.4166 16.6013 10.5235 16.6485 10.6136L16.9851 11.2757C17.0042 11.3266 17.0284 11.3775 17.0533 11.4297C17.0694 11.4636 17.0858 11.498 17.1012 11.5334C17.1564 11.6507 17.2115 11.7743 17.2646 11.898C17.3118 12.0069 17.3591 12.1138 17.4142 12.2311C17.4373 12.2863 17.461 12.3421 17.4849 12.3987C17.5729 12.6067 17.6654 12.8253 17.7566 13.0608C17.8354 13.2599 17.9141 13.4589 17.983 13.6663C18.172 14.188 18.3511 14.7454 18.5066 15.3174C18.5453 15.4454 18.5762 15.5693 18.6076 15.6949C18.6209 15.7481 18.6342 15.8016 18.6483 15.8559L18.6699 15.9564C18.7329 16.2225 18.7881 16.4865 18.8274 16.7526C18.8589 16.9349 18.8884 17.1088 18.9042 17.2848C18.9278 17.4838 18.9514 17.6829 18.9593 17.8819C18.975 18.0642 18.9829 18.2549 18.9829 18.4372C18.9829 18.9023 18.9436 19.3507 18.851 19.7739C18.8452 19.7966 18.8394 19.8197 18.8336 19.8429C18.8077 19.9459 18.7808 20.0526 18.7487 20.1553C18.7196 20.2651 18.6819 20.375 18.6428 20.4891C18.629 20.5295 18.6149 20.5704 18.6011 20.612C18.5985 20.6194 18.5959 20.6268 18.5933 20.6343C18.5643 20.7173 18.5349 20.8017 18.4987 20.8844C18.3038 21.3831 18.0618 21.8796 17.8118 22.3448C17.4457 23.0341 17.0776 23.6396 16.8198 24.0293C16.804 24.0545 16.7886 24.0785 16.7738 24.1015C16.7553 24.1303 16.7377 24.1576 16.7214 24.1844C16.6407 24.3059 16.7233 24.4777 16.8631 24.4777H19.5872V26.7678H16.8316C16.0915 26.7678 15.4065 26.3215 15.0759 25.607C14.9046 25.2487 14.8377 24.8548 14.8771 24.4693C14.8869 24.3541 14.8062 24.2451 14.696 24.2451H9.12964C9.03516 24.2451 8.95841 24.3268 8.95841 24.4274V24.5489C8.95841 28.3287 11.8262 31.3919 15.3652 31.3919H25.3503C27.222 31.3919 28.2848 29.5763 29.3295 27.7918C29.6207 27.2943 29.9104 26.7993 30.216 26.3466C30.7651 25.5337 32.0858 24.8883 32.4716 24.7123C32.5346 24.683 32.5779 24.616 32.5779 24.5405Z" fill="white"/>
</g>
<defs>
<clipPath id="clip0_1_361">
<rect width="38.3157" height="40.7866" fill="white" transform="translate(0.912109 0.606201)"/>
</clipPath>
</defs>
</svg>
